<svg xmlns="http://www.w3.org/2000/svg" viewBox="0 0 190 540" width="190" height="540"><g fill="none"><g transform="translate(0 8)"><path fill="#44B449" d="M48 272.8v7.6l8.5 7.6L73 273.2V265l-16.5 14.9zM22.4 316v3.5l4.1 3.6 6.9-6.2v-3.8l-6.9 6.2z"/><path fill="#C0C0C0" d="M8 272.8v7.6l8.6 7.6L33 273.2V265l-16.4 14.9z"/><path fill="#FE7A16" d="M45.1 183h29l-14.4-15z"/><path fill="#818185" d="M5.2 183h29l-14.5-15z"/><path fill="#FE7A16" d="M59.6 235L74 220H45zM6.5 314.3l-6.5 7h13z"/><path fill="#818185" d="M7.2 378.5l-7-6.5v13zm46.9 87.1l-7-6.4v13zm-47.6.1l7 6.5v-13zM26.8 382l6.4-7h-13z"/><path fill="#B8B8B8" d="M6.5 333.3l-6.5 7h13z"/><path fill="#818185" d="M19.7 235l14.5-15h-29z"/><path fill="#FFD83D" d="M59.1 129l-6.5 4.8L55 126l-6.4-4.6h8l2.5-7.8 2.5 7.8h8l-6.4 4.6 2.4 7.8z"/><path fill="#EAC328" d="M59.1 115.3l1.9 5.9.2.7H68l-5 3.7-.6.4.2.7 1.9 5.9-5-3.7-.6-.4-.6.4-5 3.7 1.9-5.9.2-.7-.6-.4-5-3.7h6.8l.2-.7 2.3-5.9zm0-3.3l-2.9 8.8H47l7.4 5.5-2.9 8.8 7.4-5.5 7.4 5.5-2.9-8.8 7.4-5.5h-9.2l-2.5-8.8z"/><path fill="#C0C0C0" d="M19 112l2.8 8.8H31l-7.4 5.4 2.9 8.8-7.5-5.5-7.5 5.5 2.9-8.8-7.4-5.4h9.2z"/><circle cx="65" cy="397" r="3" fill="#C96"/><circle cx="85" cy="397" r="3" fill="#C5C5C5"/><circle cx="105" cy="397" r="3" fill="#FC0"/><path fill="#9E9E9E" d="M47.2 359h2v2h-2zm3 3h2v2h-2zm6 0h2v2h-2zm6 0h2v2h-2zm6 0h2v2h-2zm-14.9-3h2v2h-2zm6 0h2v2h-2zm6 0h2v2h-2zm6.1 0h2v2h-2z"/><path fill="#C5C5C5" d="M.2 392v31h3.4a13.22 13.22 0 0 1 8.3-11.8V410a6.8 6.8 0 1 1 7.6 0v1.2a13.22 13.22 0 0 1 8.3 11.8h3.4v-31H.2z"/><path fill="#FFF" d="M3.7 423H28a13.22 13.22 0 0 0-8.3-11.8V410a6.8 6.8 0 1 0-7.6 0v1.2A13.31 13.31 0 0 0 3.7 423z"/><path fill="#B8B8B8" d="M60.3 332h1.9v14h-1.9z"/><path fill="#CCC" d="M63.2 333h10.1v8H63.2z"/><path fill="#D35F5F" d="M60.3 312.1h1.9v14h-1.9z"/><path fill="#F89393" d="M63.2 313.1h10.1v8H63.2z"/><path fill="#FE6502" d="M80.3 312.1h14v14h-14z"/><path fill="#FFF" d="M83.5 321.5a1.4 1.4 0 1 0 1.4 1.4 1.43 1.43 0 0 0-1.4-1.4zm-1.4-4v2a4.78 4.78 0 0 1 4.8 4.8h2a6.68 6.68 0 0 0-6.8-6.8zm0-3.6v2a8.45 8.45 0 0 1 8.4 8.4h2a10.46 10.46 0 0 0-10.4-10.4z"/><path fill="#7A7A7A" d="M22.6 339.1l-.7 3.2 3.2-.7zm.8-.66l3.6-3.6 2.48 2.47-3.6 3.6zm5.7-5.14a1.5 1.5 0 0 0-1.1.4l-.7.7 2.5 2.5.7-.7a2.1 2.1 0 0 0 .4-1.1 1.79 1.79 0 0 0-1.8-1.8z"/><circle cx="107" cy="443.8" r="6.5" fill="#C03433"/><path fill="#FFF" d="M110.2 445.7l-1.9-1.9 1.9-1.9v-.3l-.9-.9c-.1-.1-.1-.1-.2 0h-.1l-1.9 1.9-1.9-1.9h-.3l-.9.9c-.1.1-.1.1 0 .2v.1l1.9 1.9-1.9 1.9v.3l.9.9c.1.1.1.1.2 0h.1l1.9-1.9 1.9 1.9h.3l.9-.9v-.3z"/><circle cx="47.2" cy="338.9" r="6.5" fill="#C03433"/><path fill="#FFF" d="M50.4 340.8l-1.9-1.9 1.9-1.9v-.3l-.9-.9c-.1-.1-.1-.1-.2 0h-.1l-1.9 1.9-1.9-1.9h-.3l-.9.9c-.1.1-.1.1 0 .2v.1l1.9 1.9-1.9 1.9v.3l.9.9c.1.1.1.1.2 0h.1l1.9-1.9 1.9 1.9h.3l.9-.9v-.3z"/><circle cx="47.2" cy="318.1" r="6.5" fill="#CCC"/><path fill="#FFF" d="M50.4 320.1l-1.9-1.9 1.9-1.9v-.3l-.9-.9c-.1-.1-.1-.1-.2 0h-.1l-2 1.8-1.9-1.9H45l-.9.9c-.1.1-.1.1 0 .2v.1l1.9 1.9-1.9 1.9v.3l.9.9c.1.1.1.1.2 0h.1l1.9-1.9 1.9 1.9h.3l.9-.9c.1 0 .1-.1.1-.2z"/><path fill="#222426" d="M42.8 23.3l-2.2-.2c-1.7-.1-2.3-.8-2.3-2 0-1.4 1-2.2 3-2.2a5.52 5.52 0 0 1 3.6 1.1l1.3-1.3a7.4 7.4 0 0 0-4.8-1.4c-2.9 0-4.9 1.5-4.9 3.9 0 2.2 1.4 3.4 4 3.6l2.2.2c1.6.1 2.2.8 2.2 2 0 1.6-1.4 2.4-3.6 2.4a5.29 5.29 0 0 1-4.2-1.6l-1.3 1.3a7.41 7.41 0 0 0 5.5 1.9c3.2 0 5.5-1.5 5.5-4.1 0-2.6-1.6-3.4-4-3.6zm16.8-6c-2.2 0-3.5.4-4.7 1.9l1.3 1.3a3.6 3.6 0 0 1 3.4-1.5c2.5 0 3.4 1 3.4 2.9v1.3h-4c-3 0-4.6 1.5-4.6 3.9a3.87 3.87 0 0 0 1 2.7c.8.9 1.9 1.2 3.8 1.2a5.07 5.07 0 0 0 3.9-1.4v1.3h2v-9.1c-.1-3-1.9-4.5-5.5-4.5zm3.4 8.8a2.88 2.88 0 0 1-.7 2.3 4 4 0 0 1-3 .9c-2.1 0-3.1-.7-3.1-2.3 0-1.6 1-2.4 3-2.4H63v1.5zm9.7-7.1a3.73 3.73 0 0 1 3.1 1.5l1.3-1.3a5.24 5.24 0 0 0-4.4-2c-3.4 0-5.9 2.3-5.9 6.9 0 4.6 2.6 6.9 5.9 6.9a5.24 5.24 0 0 0 4.4-2l-1.3-1.3a3.73 3.73 0 0 1-3.1 1.5 3.62 3.62 0 0 1-3.1-1.5 6 6 0 0 1-.9-3.6 5.35 5.35 0 0 1 .9-3.6 3.62 3.62 0 0 1 3.1-1.5zm16.8-1.6h-2.4L81 23.3V11.5h-2v19.4h2V26l2.4-2.4 4.5 7.3h2.4l-5.6-8.6 4.8-4.9zm9.2-.6a5.57 5.57 0 0 0-4.3 1.7c-1.3 1.3-1.6 2.9-1.6 5.4 0 2.5.3 4.1 1.6 5.4a5.91 5.91 0 0 0 4.3 1.7 5.57 5.57 0 0 0 4.3-1.7c1.3-1.3 1.6-2.9 1.6-5.4 0-2.5-.3-4.1-1.6-5.4a5.24 5.24 0 0 0-4.3-1.7zm1.7 10.5a2.43 2.43 0 0 1-3.2 0c-.7-.7-.8-2-.8-3.4s.1-2.7.8-3.4a2.43 2.43 0 0 1 3.2 0c.7.7.8 1.9.8 3.4a5.08 5.08 0 0 1-.8 3.4zM114 16.9l-2.8 8.6-2.8-8.6h-3.7l5.2 14h2.7l5.1-14H114zm9.6-.1c-3.6 0-6.1 2.6-6.1 7.1 0 5.7 3.2 7.2 6.5 7.2a6.7 6.7 0 0 0 5.3-2.2l-2.1-2.1A3.76 3.76 0 0 1 124 28a2.89 2.89 0 0 1-3.1-3.1h8.7v-1.6c.1-3.7-2.1-6.5-6-6.5zm-2.7 5.8a3.65 3.65 0 0 1 .3-1.5 2.5 2.5 0 0 1 2.3-1.4 2.3 2.3 0 0 1 2.3 1.4c.2.47.3.98.3 1.5h-5.2zm13.9-4.4v-1.3h-3.4v14h3.5v-8.4a2.35 2.35 0 0 1 2.3-2.6 2.2 2.2 0 0 1 1.8.8l2.6-2.7a4.1 4.1 0 0 0-3.3-1.3 5.18 5.18 0 0 0-3.5 1.5zm7.9-2.8v15.4h3.5v-11h2.6v-2.7h-2.6v-1.5a1.13 1.13 0 0 1 1.2-1.3h1.3v-3h-2a3.89 3.89 0 0 0-4 4.1zm20.4 1.4a5.57 5.57 0 0 0-4.3 1.7c-1.3 1.3-1.6 2.9-1.6 5.4 0 2.5.3 4.1 1.6 5.4a5.91 5.91 0 0 0 4.3 1.7 5.57 5.57 0 0 0 4.3-1.7c1.3-1.3 1.6-2.9 1.6-5.4 0-2.5-.3-4.1-1.6-5.4a5.24 5.24 0 0 0-4.3-1.7zm1.7 10.5a2.43 2.43 0 0 1-3.2 0c-.7-.7-.8-2-.8-3.4s.1-2.7.8-3.4a2.43 2.43 0 0 1 3.2 0c.7.7.8 1.9.8 3.4a5.08 5.08 0 0 1-.8 3.4zm20.7-10.4l-2.3 8.6-2.9-8.6h-2.5l-2.8 8.6-2.3-8.6H169l4.3 14h2.9l2.9-8.8 2.9 8.8h2.9l4.3-14h-3.7zm-31.6 9.9V11.4h-3.5v15.4a3.8 3.8 0 0 0 4.1 4h2v-3h-1.3a1 1 0 0 1-1.3-1zM52.2 19.6l1.8-1.8h-3.7v-4.4h-2v13.9c0 2 1.1 3.6 3.4 3.6h1.4v-1.7h-1c-1.3 0-1.8-.7-1.8-2v-7.7l1.9.1z"/><path fill="#BCBBBB" d="M26.5 34.2v-10h3.3v13.3H0V24.2h3.3v10z"/><path fill="#F48024" d="M7 23.3l16.2 3.4.7-3.2-16.2-3.4-.7 3.2zm2.1-7.8l15 7 1.4-3-15-7-1.4 3zm4.2-7.3L26 18.8l2.1-2.5L15.4 5.7l-2.1 2.5zM21.5.3l-2.7 2 9.9 13.3 2.7-2L21.5.3zM6.6 30.9h16.6v-3.3H6.6v3.3z"/><path d="M38.09 40.75a1.68 1.68 0 0 0 1.74 1.92 2 2 0 0 0 1.66-.7l.88.82a3.21 3.21 0 0 1-2.56 1.07c-1.71 0-3.08-.9-3.08-3.51 0-2.21 1.15-3.49 2.9-3.49s2.9 1.35 2.9 3.29v.61h-4.44v-.01zM41 38.86a1.41 1.41 0 0 0-1.37-.86 1.43 1.43 0 0 0-1.36.86 2.16 2.16 0 0 0-.18.93h3.08a2.16 2.16 0 0 0-.17-.93zm14.76 1.89a1.68 1.68 0 0 0 1.74 1.92 2 2 0 0 0 1.66-.7l.84.81a3.21 3.21 0 0 1-2.56 1.07c-1.71 0-3.08-.9-3.08-3.51 0-2.21 1.15-3.49 2.9-3.49s2.9 1.35 2.9 3.29v.61h-4.4zm2.89-1.89A1.41 1.41 0 0 0 57.3 38a1.43 1.43 0 0 0-1.36.86 2.16 2.16 0 0 0-.18.93h3.08a2.16 2.16 0 0 0-.2-.93h.01zm-10.6 4.91V39.6a1.33 1.33 0 0 0-1.38-1.52 1.36 1.36 0 0 0-1.42 1.52v4.17h-1.37v-6.84h1.35v.69a2.45 2.45 0 0 1 1.82-.77 2.37 2.37 0 0 1 1.69.62 2.51 2.51 0 0 1 .69 1.93v4.37h-1.38zm16.08.08a3.76 3.76 0 0 1-2.87-1l.9-.9a2.65 2.65 0 0 0 2 .71c.84 0 1.5-.3 1.5-.94a.8.8 0 0 0-.92-.81l-1.09-.09c-1.28-.11-2-.69-2-1.89s1.15-2.09 2.58-2.09a3.75 3.75 0 0 1 2.54.77l-.86.88a2.58 2.58 0 0 0-1.69-.5 1 1 0 0 0-1.24.88c0 .4.22.71.94.78l1.08.09c1.28.11 2 .71 2 1.93 0 1.44-1.23 2.18-2.87 2.18zm8.87-.61a2.33 2.33 0 0 1-1.66.61 2.13 2.13 0 0 1-1.79-.78v3.47H68.2v-9.6h1.35v.73a2.1 2.1 0 0 1 1.81-.81 2.36 2.36 0 0 1 1.67.61c.61.83.89 1.86.77 2.89a4.11 4.11 0 0 1-.8 2.88zm-2-5.17c-1.24 0-1.43 1.05-1.43 2.27s.19 2.28 1.43 2.28 1.42-1.07 1.42-2.28c0-1.21-.18-2.26-1.42-2.26v-.01zm8 5.7v-.62a2.25 2.25 0 0 1-1.82.7 2.42 2.42 0 0 1-1.83-.62 2.1 2.1 0 0 1-.54-1.47c0-1.15.8-2 2.36-2H79v-.46c0-.86-.43-1.28-1.5-1.28a1.6 1.6 0 0 0-1.5.66l-.9-.85a2.8 2.8 0 0 1 2.46-1c1.87 0 2.82.8 2.82 2.35v4.57H79v.02zm0-3h-1.6a1 1 0 0 0 0 2 1.63 1.63 0 0 0 1.28-.39 1.38 1.38 0 0 0 .3-1v-.63l.02.02zm7.16 3V39.6a1.33 1.33 0 0 0-1.38-1.52 1.36 1.36 0 0 0-1.42 1.52v4.17H82v-6.84h1.35v.69a2.45 2.45 0 0 1 1.82-.77 2.37 2.37 0 0 1 1.69.62 2.51 2.51 0 0 1 .69 1.93v4.37h-1.39zm-.53-8.21a1.85 1.85 0 0 1-1-.31 1.49 1.49 0 0 0-.76-.25 1 1 0 0 0-.78.4l-.65-.63a1.86 1.86 0 0 1 1.4-.74 1.8 1.8 0 0 1 1 .32c.22.16.47.25.74.26a1.05 1.05 0 0 0 .8-.42l.62.62a1.88 1.88 0 0 1-1.37.74v.01zM93.77 43a2.77 2.77 0 0 1-2.05.81 2.74 2.74 0 0 1-2-.81 3.6 3.6 0 0 1-.81-2.7 3.59 3.59 0 0 1 .81-2.68 2.73 2.73 0 0 1 2-.81 2.77 2.77 0 0 1 2.05.81 3.59 3.59 0 0 1 .81 2.68 3.61 3.61 0 0 1-.81 2.7zm-1-4.57a1.39 1.39 0 0 0-1-.39 1.36 1.36 0 0 0-1 .39 2.65 2.65 0 0 0-.47 1.87 2.65 2.65 0 0 0 .47 1.88 1.37 1.37 0 0 0 1 .4 1.4 1.4 0 0 0 1-.4 2.65 2.65 0 0 0 .47-1.88 2.65 2.65 0 0 0-.51-1.83l.04-.04zm5.04 5.34a1.74 1.74 0 0 1-1.87-1.89v-7.72h1.38v7.64a.66.66 0 0 0 .74.8h.61v1.17h-.86zM30.08 524.55a1.47 1.47 0 0 0 1.5 1.67 1.73 1.73 0 0 0 1.45-.6l.76.7a2.78 2.78 0 0 1-2.22.94c-1.48 0-2.67-.78-2.67-3.06 0-1.93 1-3.04 2.52-3.04s2.51 1.17 2.51 2.87v.53h-3.85v-.01zm2.53-1.65a1.22 1.22 0 0 0-1.2-.75c-.5-.02-.97.28-1.17.75a1.9 1.9 0 0 0-.16.81h2.67a1.9 1.9 0 0 0-.14-.81zm12.81 1.65a1.47 1.47 0 0 0 1.51 1.67 1.73 1.73 0 0 0 1.45-.6l.73.7a2.78 2.78 0 0 1-2.23.93c-1.48 0-2.67-.78-2.67-3.06 0-1.93 1-3.04 2.52-3.04s2.51 1.17 2.51 2.87v.53h-3.82zm2.51-1.65a1.22 1.22 0 0 0-1.17-.75c-.51-.02-.98.28-1.18.75a1.9 1.9 0 0 0-.16.81h2.68a1.9 1.9 0 0 0-.18-.81h.01zm-9.2 4.28v-3.63c.05-.35-.06-.7-.29-.95a1.15 1.15 0 0 0-.91-.38 1.18 1.18 0 0 0-.92.37 1.19 1.19 0 0 0-.31.95v3.64h-1.2v-5.96h1.18v.6c.4-.44.98-.68 1.58-.67a2.05 2.05 0 0 1 1.47.54c.43.45.64 1.06.6 1.68v3.81h-1.2zm13.96.07a3.26 3.26 0 0 1-2.5-.87l.8-.79c.46.44 1.09.67 1.73.62.73 0 1.3-.26 1.3-.82a.7.7 0 0 0-.8-.7l-.94-.08c-1.12-.1-1.74-.6-1.74-1.65 0-1.05 1-1.82 2.24-1.82a3.25 3.25 0 0 1 2.2.67l-.74.77a2.23 2.23 0 0 0-1.47-.44.86.86 0 0 0-.71.14.87.87 0 0 0-.37.63c0 .35.2.62.82.68l.94.08c1.1.1 1.73.62 1.73 1.68 0 1.26-1.06 1.9-2.49 1.9zm7.7-.53a2 2 0 0 1-1.44.53 1.85 1.85 0 0 1-1.55-.68v3.03h-1.17v-8.37h1.17v.63a1.82 1.82 0 0 1 1.57-.7 2.04 2.04 0 0 1 1.45.53c.53.72.77 1.62.67 2.52a3.6 3.6 0 0 1-.7 2.5zm-1.73-4.51c-1.08 0-1.24.92-1.24 1.98s.16 1.99 1.24 1.99 1.23-.93 1.23-1.99c0-1.05-.15-1.97-1.23-1.97v-.01zm6.95 4.97v-.54a1.95 1.95 0 0 1-1.58.61 2.1 2.1 0 0 1-1.6-.54 1.84 1.84 0 0 1-.46-1.28c0-1 .7-1.74 2.05-1.74h1.59v-.4c0-.76-.38-1.12-1.3-1.12a1.39 1.39 0 0 0-1.31.57l-.78-.74a2.43 2.43 0 0 1 2.14-.87c1.62 0 2.44.7 2.44 2.05v3.99h-1.2v.01zm0-2.61h-1.4a.87.87 0 0 0-.86.87.87.87 0 0 0 .87.87c.4.05.8-.07 1.1-.34.2-.25.3-.56.27-.87v-.55l.02.02zm6.21 2.61v-3.63c.05-.35-.05-.7-.28-.95a1.15 1.15 0 0 0-.91-.38 1.18 1.18 0 0 0-.93.37 1.19 1.19 0 0 0-.3.95v3.64h-1.2v-5.96h1.17v.6c.41-.44.99-.68 1.58-.67a2.05 2.05 0 0 1 1.47.54c.43.45.65 1.06.6 1.68v3.81h-1.2zm-.46-7.16a1.6 1.6 0 0 1-.87-.27 1.29 1.29 0 0 0-.66-.22.87.87 0 0 0-.67.35l-.57-.55c.3-.39.74-.62 1.22-.65.3 0 .61.1.87.29.18.13.4.21.64.22a.91.91 0 0 0 .7-.37l.53.54a1.63 1.63 0 0 1-1.19.65v.01zm7.07 6.49a2.4 2.4 0 0 1-1.78.7 2.37 2.37 0 0 1-1.74-.7 3.15 3.15 0 0 1-.7-2.35 3.14 3.14 0 0 1 .7-2.34 2.37 2.37 0 0 1 1.74-.71 2.4 2.4 0 0 1 1.78.7c.54.66.8 1.5.7 2.35a3.16 3.16 0 0 1-.7 2.35zm-.87-3.99a1.2 1.2 0 0 0-.87-.34 1.18 1.18 0 0 0-.86.34 2.32 2.32 0 0 0-.41 1.64 2.32 2.32 0 0 0 .4 1.64c.24.23.55.35.88.34.32 0 .63-.12.86-.35a2.32 2.32 0 0 0 .41-1.64 2.32 2.32 0 0 0-.44-1.6l.03-.03zm4.38 4.66a1.5 1.5 0 0 1-1.2-.44 1.52 1.52 0 0 1-.42-1.2v-6.74h1.2v6.66a.58.58 0 0 0 .64.7h.53v1.02h-.75z" fill="#BBBABA"/></g><path fill="#222426" d="M33.9 518.6l-1.7-.2c-1.3-.1-1.9-.6-1.9-1.6 0-1.1.8-1.8 2.4-1.8 1.1 0 2.1.3 2.8.8l1-1c-1-.8-2.3-1.1-3.8-1.1-2.3 0-3.9 1.2-3.9 3.1 0 1.8 1.1 2.7 3.2 2.9l1.8.2c1.2.1 1.8.6 1.8 1.6 0 1.3-1.1 1.9-2.8 1.9-1.3 0-2.5-.3-3.3-1.2l-1 1c1.2 1.1 2.6 1.5 4.4 1.5 2.6 0 4.3-1.2 4.3-3.2-.2-2-1.5-2.7-3.3-2.9zm13.3-4.8c-1.7 0-2.8.3-3.7 1.5l1 1c.6-.9 1.3-1.2 2.7-1.2 1.9 0 2.7.8 2.7 2.3v1h-3.2c-2.4 0-3.7 1.2-3.7 3.1 0 .8.3 1.6.8 2.2.7.7 1.5 1 3 1 1.4 0 2.2-.3 3.1-1.1v1h1.6v-7.2c-.1-2.4-1.5-3.6-4.3-3.6zm2.7 7c0 .9-.2 1.5-.5 1.8-.7.6-1.5.7-2.4.7-1.7 0-2.4-.6-2.4-1.8 0-1.2.8-1.9 2.4-1.9h3l-.1 1.2zm7.6-5.6c1 0 1.6.3 2.4 1.2l1-1c-1.1-1.2-2-1.6-3.5-1.6-2.7 0-4.7 1.8-4.7 5.5 0 3.6 2 5.5 4.7 5.5 1.5 0 2.4-.4 3.5-1.6l-1.1-1c-.8.9-1.4 1.2-2.4 1.2s-1.9-.4-2.5-1.2c-.5-.7-.7-1.5-.7-2.9 0-1.3.2-2.2.7-2.9.7-.8 1.6-1.2 2.6-1.2zm13.4-1.3H69l-4.8 4.7v-9.5h-1.6v15.4h1.6v-3.9l1.9-1.9 3.6 5.8h1.9l-4.4-6.9 3.7-3.7zm7.3-.5c-1.6 0-2.7.6-3.4 1.4-1 1-1.3 2.3-1.3 4.3s.3 3.3 1.3 4.3c.7.7 1.8 1.4 3.4 1.4 1.6 0 2.8-.6 3.4-1.4 1-1 1.3-2.3 1.3-4.3s-.3-3.3-1.3-4.3c-.6-.8-1.7-1.4-3.4-1.4zm1.3 8.3c-.3.3-.7.5-1.3.5-.6 0-1-.2-1.3-.5-.6-.6-.6-1.6-.6-2.7 0-1.2.1-2.1.6-2.7.3-.3.7-.5 1.3-.5.6 0 1 .2 1.3.5.6.6.6 1.5.6 2.7.1 1.2 0 2.2-.6 2.7zm10.8-8.2l-2.2 6.9-2.3-6.9h-2.9l4.1 11.1h2.2l4.1-11.1h-3zm7.6-.1c-2.9 0-4.8 2-4.8 5.7 0 4.5 2.5 5.7 5.1 5.7 2 0 3.1-.6 4.2-1.7l-1.7-1.6c-.7.7-1.3 1-2.5 1-1.6 0-2.4-1-2.4-2.5h6.9v-1.2c0-3.2-1.7-5.4-4.8-5.4zm-2.1 4.6c0-.5.1-.8.3-1.2.3-.7.9-1.2 1.9-1.2.9 0 1.6.5 1.9 1.2.2.4.2.7.3 1.2h-4.4zm11-3.4v-1.1h-2.7v11.1h2.8v-6.7c0-1.4.9-2 1.8-2 .7 0 1 .2 1.5.7l2.1-2.1c-.8-.8-1.5-1-2.6-1-1.3-.1-2.3.4-2.9 1.1zm6.3-2.3v12.3h2.8v-8.8h2v-2.1h-2v-1.2c0-.6.3-1 1-1h1.1v-2.3h-1.6c-2.3 0-3.3 1.6-3.3 3.1zm16.2 1.1c-1.6 0-2.7.6-3.4 1.4-1 1-1.3 2.3-1.3 4.3s.3 3.3 1.3 4.3c.7.7 1.8 1.4 3.4 1.4 1.6 0 2.8-.6 3.4-1.4 1-1 1.3-2.3 1.3-4.3s-.3-3.3-1.3-4.3c-.6-.8-1.8-1.4-3.4-1.4zm1.3 8.3c-.3.3-.7.5-1.3.5-.6 0-1-.2-1.3-.5-.6-.6-.6-1.6-.6-2.7 0-1.2.1-2.1.6-2.7.3-.3.7-.5 1.3-.5.6 0 1 .2 1.3.5.6.6.6 1.5.6 2.7 0 1.2 0 2.2-.6 2.7zm16.5-8.2l-1.8 6.9-2.3-6.9h-2l-2.3 6.9-1.8-6.9H134l3.4 11.1h2.3l2.3-7 2.3 7h2.3l3.4-11.1h-2.9zm-25.1 7.7v-12.1h-2.8v12.3c0 1.6 1 3.2 3.2 3.2h1.6v-2.3h-1c-.7 0-1-.4-1-1.1zm-80.7-5.6l1.4-1.4h-3v-3.5h-1.6v11.1c0 1.6.9 2.9 2.7 2.9h1.1v-1.3h-.8c-1 0-1.5-.6-1.5-1.6v-6.1h1.7v-.1z"/><path fill="#BCBBBB" d="M21 527v-8h3v11H0v-11h3v8"/><path fill="#F48024" d="M5.4 519.1l13.56 1.96.17-2.38-13.26-2.55-.47 2.97zm1.8-6.8l12 5.6 1.1-2.4-12-5.6-1.1 2.4zm3.4-5.9l10.2 8.5 1.7-2-10.2-8.5-1.7 2zm6.5-6.2l-2.1 1.6 7.9 10.6 2.1-1.6-7.9-10.6zM5 525h14v-3H5v3z"/></g></svg>